HIERARCHY
ROOT mixamorig:Hips
{
	OFFSET 0.000000 201.639420 0.000000
	CHANNELS 6 Xposition Yposition Zposition Xrotation Yrotation Zrotation
	JOINT mixamorig:Spine
	{
		OFFSET 0.006200 19.524994 -2.481800
		CHANNELS 3 Xrotation Yrotation Zrotation
		JOINT mixamorig:Spine1
		{
			OFFSET -0.000900 22.835007 -2.825400
			CHANNELS 3 Xrotation Yrotation Zrotation
			JOINT mixamorig:Spine2
			{
				OFFSET -0.020600 26.552490 -3.193300
				CHANNELS 3 Xrotation Yrotation Zrotation
				JOINT mixamorig:Neck
				{
					OFFSET -0.060000 30.701813 1.352200
					CHANNELS 3 Xrotation Yrotation Zrotation
					JOINT mixamorig:Head
					{
						OFFSET -0.087200 22.547607 3.670900
						CHANNELS 3 Xrotation Yrotation Zrotation
						JOINT mixamorig:HeadTop_End
						{
							OFFSET -0.830600 40.355194 7.893500
							CHANNELS 3 Xrotation Yrotation Zrotation
							End Site
							{
								OFFSET 0.000000 30.592346 0.000000
							}
						}
						JOINT mixamorig:RightEye
						{
							OFFSET -6.302100 18.118591 16.197100
							CHANNELS 3 Xrotation Yrotation Zrotation
							End Site
							{
								OFFSET 0.000000 30.592346 0.000000
							}
						}
						JOINT mixamorig:LeftEye
						{
							OFFSET 6.741500 18.382690 16.401899
							CHANNELS 3 Xrotation Yrotation Zrotation
							End Site
							{
								OFFSET 0.000000 30.592346 0.000000
							}
						}
					}
				}
				JOINT mixamorig:LeftShoulder
				{
					OFFSET 11.924900 18.230499 1.425400
					CHANNELS 3 Xrotation Yrotation Zrotation
					JOINT mixamorig:LeftArm
					{
						OFFSET 25.435989 -0.697632 -5.229300
						CHANNELS 3 Xrotation Yrotation Zrotation
						JOINT mixamorig:LeftForeArm
						{
							OFFSET 54.684776 0.000000 0.000000
							CHANNELS 3 Xrotation Yrotation Zrotation
							JOINT mixamorig:LeftHand
							{
								OFFSET 55.098175 0.000000 0.000000
								CHANNELS 3 Xrotation Yrotation Zrotation
								JOINT mixamorig:LeftHandMiddle1
								{
									OFFSET 23.369751 0.000000 0.000000
									CHANNELS 3 Xrotation Yrotation Zrotation
									JOINT mixamorig:LeftHandMiddle2
									{
										OFFSET 6.378677 0.000000 0.000000
										CHANNELS 3 Xrotation Yrotation Zrotation
										JOINT mixamorig:LeftHandMiddle3
										{
											OFFSET 6.148331 0.000000 0.000000
											CHANNELS 3 Xrotation Yrotation Zrotation
											JOINT mixamorig:LeftHandMiddle4
											{
												OFFSET 6.582504 0.000000 0.000000
												CHANNELS 3 Xrotation Yrotation Zrotation
												End Site
												{
													OFFSET -1.168900 6.395691 1.028606
												}
											}
										}
									}
								}
								JOINT mixamorig:LeftHandThumb1
								{
									OFFSET 7.235672 -3.848206 5.434273
									CHANNELS 3 Xrotation Yrotation Zrotation
									JOINT mixamorig:LeftHandThumb2
									{
										OFFSET 6.568451 -3.792297 3.792300
										CHANNELS 3 Xrotation Yrotation Zrotation
										JOINT mixamorig:LeftHandThumb3
										{
											OFFSET 6.063080 -3.500519 3.500518
											CHANNELS 3 Xrotation Yrotation Zrotation
											JOINT mixamorig:LeftHandThumb4
											{
												OFFSET 4.793182 -2.767334 2.767349
												CHANNELS 3 Xrotation Yrotation Zrotation
												End Site
												{
													OFFSET 0.101639 6.054260 1.275483
												}
											}
										}
									}
								}
								JOINT mixamorig:LeftHandIndex1
								{
									OFFSET 23.101074 -0.309540 4.992809
									CHANNELS 3 Xrotation Yrotation Zrotation
									JOINT mixamorig:LeftHandIndex2
									{
										OFFSET 6.226883 0.000000 0.000000
										CHANNELS 3 Xrotation Yrotation Zrotation
										JOINT mixamorig:LeftHandIndex3
										{
											OFFSET 6.094330 0.000000 0.000000
											CHANNELS 3 Xrotation Yrotation Zrotation
											JOINT mixamorig:LeftHandIndex4
											{
												OFFSET 5.482605 0.000000 0.000000
												CHANNELS 3 Xrotation Yrotation Zrotation
												End Site
												{
													OFFSET -1.427902 5.233032 0.797164
												}
											}
										}
									}
								}
								JOINT mixamorig:LeftHandRing1
								{
									OFFSET 22.299240 0.021149 -3.964172
									CHANNELS 3 Xrotation Yrotation Zrotation
									JOINT mixamorig:LeftHandRing2
									{
										OFFSET 6.321869 0.000000 0.000000
										CHANNELS 3 Xrotation Yrotation Zrotation
										JOINT mixamorig:LeftHandRing3
										{
											OFFSET 5.899796 0.000000 0.000000
											CHANNELS 3 Xrotation Yrotation Zrotation
											JOINT mixamorig:LeftHandRing4
											{
												OFFSET 6.517899 0.000000 0.000000
												CHANNELS 3 Xrotation Yrotation Zrotation
												End Site
												{
													OFFSET -1.637299 6.232208 0.980890
												}
											}
										}
									}
								}
								JOINT mixamorig:LeftHandPinky1
								{
									OFFSET 20.463791 -0.302338 -8.562233
									CHANNELS 3 Xrotation Yrotation Zrotation
									JOINT mixamorig:LeftHandPinky2
									{
										OFFSET 6.908646 0.000000 0.000000
										CHANNELS 3 Xrotation Yrotation Zrotation
										JOINT mixamorig:LeftHandPinky3
										{
											OFFSET 4.622849 0.000000 0.000000
											CHANNELS 3 Xrotation Yrotation Zrotation
											JOINT mixamorig:LeftHandPinky4
											{
												OFFSET 5.216080 0.000000 0.000000
												CHANNELS 3 Xrotation Yrotation Zrotation
												End Site
												{
													OFFSET -0.606308 5.116241 0.814926
												}
											}
										}
									}
								}
							}
						}
					}
				}
				JOINT mixamorig:RightShoulder
				{
					OFFSET -12.001300 18.284088 1.348900
					CHANNELS 3 Xrotation Yrotation Zrotation
					JOINT mixamorig:RightArm
					{
						OFFSET -25.308500 -0.751312 -5.164599
						CHANNELS 3 Xrotation Yrotation Zrotation
						JOINT mixamorig:RightForeArm
						{
							OFFSET -54.684429 0.000000 0.000000
							CHANNELS 3 Xrotation Yrotation Zrotation
							JOINT mixamorig:RightHand
							{
								OFFSET -55.150291 0.000000 0.000000
								CHANNELS 3 Xrotation Yrotation Zrotation
								JOINT mixamorig:RightHandMiddle1
								{
									OFFSET -23.317566 0.000000 0.000000
									CHANNELS 3 Xrotation Yrotation Zrotation
									JOINT mixamorig:RightHandMiddle2
									{
										OFFSET -6.378403 0.000000 0.000000
										CHANNELS 3 Xrotation Yrotation Zrotation
										JOINT mixamorig:RightHandMiddle3
										{
											OFFSET -6.148193 0.000000 0.000000
											CHANNELS 3 Xrotation Yrotation Zrotation
											JOINT mixamorig:RightHandMiddle4
											{
												OFFSET -6.583389 0.000000 0.000000
												CHANNELS 3 Xrotation Yrotation Zrotation
												End Site
												{
													OFFSET 1.171692 6.395905 1.029786
												}
											}
										}
									}
								}
								JOINT mixamorig:RightHandThumb1
								{
									OFFSET -7.190521 -3.860474 5.435846
									CHANNELS 3 Xrotation Yrotation Zrotation
									JOINT mixamorig:RightHandThumb2
									{
										OFFSET -6.567429 -3.791718 3.791708
										CHANNELS 3 Xrotation Yrotation Zrotation
										JOINT mixamorig:RightHandThumb3
										{
											OFFSET -6.062469 -3.500153 3.500166
											CHANNELS 3 Xrotation Yrotation Zrotation
											JOINT mixamorig:RightHandThumb4
											{
												OFFSET -4.792618 -2.767029 2.767022
												CHANNELS 3 Xrotation Yrotation Zrotation
												End Site
												{
													OFFSET -0.100327 6.053253 1.276754
												}
											}
										}
									}
								}
								JOINT mixamorig:RightHandIndex1
								{
									OFFSET -23.048981 -0.310791 4.992554
									CHANNELS 3 Xrotation Yrotation Zrotation
									JOINT mixamorig:RightHandIndex2
									{
										OFFSET -6.227539 0.000000 0.000000
										CHANNELS 3 Xrotation Yrotation Zrotation
										JOINT mixamorig:RightHandIndex3
										{
											OFFSET -6.095047 0.000000 0.000000
											CHANNELS 3 Xrotation Yrotation Zrotation
											JOINT mixamorig:RightHandIndex4
											{
												OFFSET -5.484772 0.000000 0.000000
												CHANNELS 3 Xrotation Yrotation Zrotation
												End Site
												{
													OFFSET 1.420593 5.237305 0.797056
												}
											}
										}
									}
								}
								JOINT mixamorig:RightHandRing1
								{
									OFFSET -22.246323 0.020569 -3.963762
									CHANNELS 3 Xrotation Yrotation Zrotation
									JOINT mixamorig:RightHandRing2
									{
										OFFSET -6.322128 0.000000 0.000000
										CHANNELS 3 Xrotation Yrotation Zrotation
										JOINT mixamorig:RightHandRing3
										{
											OFFSET -5.900024 0.000000 0.000000
											CHANNELS 3 Xrotation Yrotation Zrotation
											JOINT mixamorig:RightHandRing4
											{
												OFFSET -6.518356 0.000000 0.000000
												CHANNELS 3 Xrotation Yrotation Zrotation
												End Site
												{
													OFFSET 1.636398 6.232697 0.982186
												}
											}
										}
									}
								}
								JOINT mixamorig:RightHandPinky1
								{
									OFFSET -20.411011 -0.303314 -8.561701
									CHANNELS 3 Xrotation Yrotation Zrotation
									JOINT mixamorig:RightHandPinky2
									{
										OFFSET -6.907349 0.000000 0.000000
										CHANNELS 3 Xrotation Yrotation Zrotation
										JOINT mixamorig:RightHandPinky3
										{
											OFFSET -4.623840 0.000000 0.000000
											CHANNELS 3 Xrotation Yrotation Zrotation
											JOINT mixamorig:RightHandPinky4
											{
												OFFSET -5.218353 0.000000 0.000000
												CHANNELS 3 Xrotation Yrotation Zrotation
												End Site
												{
													OFFSET 0.602097 5.118835 0.816273
												}
											}
										}
									}
								}
							}
						}
					}
				}
			}
		}
	}
	JOINT mixamorig:LeftUpLeg
	{
		OFFSET 18.168400 -13.561905 -0.039000
		CHANNELS 3 Xrotation Yrotation Zrotation
		JOINT mixamorig:LeftLeg
		{
			OFFSET 0.577358 -80.825211 -3.695000
			CHANNELS 3 Xrotation Yrotation Zrotation
			JOINT mixamorig:LeftFoot
			{
				OFFSET -0.577356 -83.370262 -6.520700
				CHANNELS 3 Xrotation Yrotation Zrotation
				JOINT mixamorig:LeftToeBase
				{
					OFFSET 0.750401 -20.798306 25.135401
					CHANNELS 3 Xrotation Yrotation Zrotation
					JOINT mixamorig:LeftToe_End
					{
						OFFSET -0.000500 0.001200 19.917799
						CHANNELS 3 Xrotation Yrotation Zrotation
						End Site
						{
							OFFSET 0.000000 19.917805 0.000000
						}
					}
				}
			}
		}
	}
	JOINT mixamorig:RightUpLeg
	{
		OFFSET -18.162500 -13.585098 -0.041000
		CHANNELS 3 Xrotation Yrotation Zrotation
		JOINT mixamorig:RightLeg
		{
			OFFSET -0.595024 -80.945297 -3.631900
			CHANNELS 3 Xrotation Yrotation Zrotation
			JOINT mixamorig:RightFoot
			{
				OFFSET 0.595024 -83.218193 -6.561200
				CHANNELS 3 Xrotation Yrotation Zrotation
				JOINT mixamorig:RightToeBase
				{
					OFFSET -0.753601 -20.807106 25.115000
					CHANNELS 3 Xrotation Yrotation Zrotation
					JOINT mixamorig:RightToe_End
					{
						OFFSET 0.000299 0.001700 19.918200
						CHANNELS 3 Xrotation Yrotation Zrotation
						End Site
						{
							OFFSET 0.000000 19.918203 0.000000
						}
					}
				}
			}
		}
	}
}
MOTION
Frames: 5
Frame Time: 0.033333
18.229033 149.894775 58.319176 -1.015457 -36.169424 -6.734809 30.866960 7.319393 -4.725623 0.733350 1.182440 1.116880 0.714443 1.180590 1.102094 -5.078247 0.421126 6.194831 -18.321781 8.939598 5.057408 -0.000000 0.000001 0.000000 -0.000000 0.000001 0.000000 -0.000000 0.000001 0.000000 0.425981 -2.151988 3.710579 -15.258830 -6.902355 -70.022232 -0.000006 -30.920085 0.000024 -5.500744 10.432593 -5.463320 -0.491530 -3.109406 -8.140634 0.552916 2.708052 -23.075371 0.080258 1.050320 -8.738214 0.000004 0.000001 -0.000005 4.650988 10.629958 -0.142604 1.961488 4.314490 -0.524308 -1.807615 1.247117 3.123380 0.000003 0.000000 0.000000 -0.690251 -3.573251 -9.915509 1.501301 4.296717 -38.504631 0.083864 1.073624 -8.933687 -0.000000 0.000000 -0.000003 -0.535508 -3.343210 -8.288895 0.128134 1.324797 -11.048061 0.009094 0.354308 -2.937179 -0.000002 0.000000 0.000002 -0.154399 -0.326982 -9.804112 -0.018122 -4.056478 -0.492661 0.006222 -0.293234 2.430504 0.000004 0.000001 0.000001 -0.004135 -0.328686 -6.596352 -47.660906 10.188463 60.766281 -0.000009 31.436953 -0.000002 26.812905 -24.172420 33.892406 0.495641 2.495051 -23.710226 0.539083 -2.689047 22.668298 3.544617 -0.525727 9.875333 0.000003 -0.000000 -0.000001 -1.411381 1.856101 0.378606 10.135072 -25.288808 -2.699557 -1.178336 -0.519375 -3.044842 -0.000005 0.000000 -0.000001 0.679023 6.191659 -2.397666 1.179131 -3.878948 33.805608 0.138677 -1.384508 11.438812 0.000002 0.000000 -0.000002 -1.603571 -4.504113 -16.513949 0.091574 -1.127066 9.290119 3.311533 -0.150599 2.733326 -0.000000 -0.000000 0.000000 0.075015 -14.716348 0.122456 -0.000002 0.000000 -0.000009 0.009765 0.369228 -3.031208 -0.000002 0.000000 -0.000003 -64.172988 -11.829701 25.341557 82.566817 2.543595 -2.867964 -8.928263 6.354276 -11.242263 -2.075690 0.054349 -1.499236 -0.000000 -0.000001 0.000000 -39.414348 -6.002943 -27.305534 87.312644 -3.376320 2.517908 -31.004049 -5.036735 12.797650 -4.719230 -0.675065 8.749432 0.000000 0.000001 0.000000 
17.940491 149.963348 58.441811 -0.983579 -35.610486 -6.796591 30.796944 7.278503 -4.725184 0.706066 1.164151 1.200846 0.685824 1.169250 1.182736 -5.103975 0.361032 6.186561 -18.537593 8.566213 5.123591 -0.000000 -0.000003 0.000001 -0.000000 -0.000003 0.000001 -0.000000 -0.000003 0.000001 0.418098 -2.076084 3.575703 -14.800492 -6.765067 -69.910818 0.000010 -30.997574 0.000016 -6.627782 9.494252 -4.854297 -0.627755 -3.224111 -9.710707 0.516827 2.621805 -22.299164 0.065314 0.948083 -7.881677 -0.000002 0.000001 0.000001 5.061921 10.768056 -0.601968 1.662599 3.820662 -0.692216 -1.979357 1.229668 3.204964 0.000004 0.000001 0.000001 -0.873655 -3.497357 -12.242815 1.362337 4.116483 -36.610347 0.061659 0.921308 -7.657787 0.000003 0.000003 0.000002 -0.683629 -3.667242 -9.458929 0.122101 1.293580 -10.784373 0.007023 0.311671 -2.583509 -0.000003 -0.000001 -0.000002 -0.312148 -0.935245 -10.842714 -0.018121 -4.055969 -0.496930 0.006075 -0.290043 2.404104 0.000003 0.000001 0.000001 -0.003326 -0.650436 -5.835930 -43.372231 10.159083 58.700142 -0.000001 37.610679 -0.000002 20.904108 -21.385667 27.102228 0.208667 1.599215 -18.707453 0.371190 -2.245570 18.769674 2.917046 -0.418418 6.527051 0.000001 0.000000 -0.000000 -0.316456 -0.960812 -0.224441 7.384754 -16.463235 -1.423990 -1.745212 0.760442 -2.806340 0.000003 0.000000 -0.000002 -0.121094 5.264548 4.452403 0.670186 -2.983225 25.317293 0.048120 -0.818298 6.730593 0.000002 0.000000 0.000000 -1.423121 -5.657187 -12.781079 0.066150 -0.958773 7.893004 2.715692 -0.088856 1.444944 0.000000 0.000000 0.000001 0.864986 -16.062182 3.030292 -0.000001 -0.000002 0.000025 0.008081 0.335765 -2.756249 -0.000001 0.000000 0.000002 -64.201032 -11.978776 25.185629 82.476249 2.448829 -2.905405 -8.938154 6.095011 -11.227935 -2.108822 0.052241 -1.418436 0.000000 -0.000000 0.000000 -39.000571 -6.336824 -27.188661 87.178608 -3.386652 2.490722 -31.175726 -5.399599 12.889005 -4.742870 -0.676395 8.758207 0.000000 0.000003 -0.000000 
17.668613 149.971466 58.545021 -1.125179 -35.061499 -7.059086 30.919139 6.957231 -4.521560 0.663314 1.090462 1.361631 0.641887 1.107203 1.342416 -5.098995 0.404712 6.162136 -18.445373 8.844605 4.725358 -0.000000 0.000000 -0.000000 -0.000000 0.000000 -0.000000 -0.000000 0.000000 -0.000000 0.404039 -1.931158 3.390155 -14.285618 -6.239404 -69.742536 0.000009 -30.581544 -0.000009 -6.983871 9.318993 -4.610300 -0.770374 -4.556995 -8.931304 0.622363 2.865404 -24.503717 0.105024 1.200433 -9.999314 0.000002 0.000001 -0.000001 4.066266 8.409201 -0.903649 2.581065 6.607166 -0.114917 -1.182967 2.462551 2.956182 0.000001 0.000001 0.000000 -1.054019 -5.409795 -10.384039 1.682693 4.514674 -40.865616 0.120559 1.285404 -10.715481 -0.000001 -0.000000 0.000000 -0.868719 -4.720938 -9.601181 0.147116 1.418534 -11.840966 0.012984 0.423607 -3.512464 0.000002 0.000001 -0.000000 -0.581987 -1.953171 -11.913608 -0.018097 -4.055267 -0.502721 0.006392 -0.297115 2.462693 0.000004 0.000001 0.000001 -0.011573 -0.961829 -5.410098 -40.235172 6.805836 56.757479 0.000002 46.530886 0.000010 17.012982 -18.960661 20.121983 0.257247 1.691997 -14.047751 0.185666 -1.599248 13.243805 2.401865 -0.261835 4.272538 0.000002 -0.000001 -0.000000 -0.519470 -1.719584 -1.570781 4.811628 -8.823254 -0.243772 -2.126825 1.499313 -2.789641 0.000000 -0.000001 0.000000 -0.870220 5.378502 10.839839 0.204888 -1.678749 13.915595 0.019780 -0.525283 4.314485 -0.000001 -0.000000 -0.000002 -1.004649 -5.587260 -9.614526 0.033577 -0.683888 5.620938 2.266990 -0.026589 0.798821 -0.000000 0.000002 0.000003 1.555529 -15.764480 5.408783 -0.000000 -0.000000 0.000084 0.004559 0.252277 -2.070536 0.000001 0.000000 0.000003 -64.152306 -12.152119 25.240763 82.456475 2.250361 -2.993111 -8.961344 5.793396 -11.149939 -2.167668 0.049495 -1.307442 -0.000000 0.000001 -0.000000 -38.454774 -6.690254 -26.971478 87.089434 -3.351608 2.483750 -31.354625 -5.758278 12.897896 -4.787803 -0.683659 8.804024 0.000000 -0.000001 -0.000000 
17.473919 149.924194 58.642887 -1.361578 -34.645247 -7.376398 31.105993 6.470440 -4.246164 0.585113 0.993383 1.528979 0.563081 1.020237 1.510982 -5.017508 0.510224 6.120945 -18.205775 9.438967 4.231893 -0.000000 0.000001 -0.000000 -0.000000 0.000001 -0.000000 -0.000000 0.000001 -0.000000 0.394447 -1.772991 2.921596 -13.849896 -5.534423 -69.162960 0.000000 -29.805620 -0.000015 -5.867801 10.622255 -5.213434 -0.798686 -5.772242 -7.714791 0.680209 2.988925 -25.636792 0.136200 1.365414 -11.391270 0.000005 -0.000001 -0.000003 2.637249 5.350169 -1.243620 4.052026 11.020627 0.867967 -0.460290 3.206714 2.694756 -0.000002 -0.000001 -0.000001 -1.056908 -7.136164 -8.451889 1.882905 4.735475 -43.348011 0.173203 1.537684 -12.852371 0.000004 -0.000001 -0.000001 -0.927814 -5.707657 -8.831940 0.158478 1.471651 -12.291348 0.017539 0.492114 -4.081361 0.000000 -0.000001 -0.000002 -0.739264 -2.932568 -11.400883 -0.018082 -4.054398 -0.509904 0.006844 -0.307676 2.550305 0.000000 0.000000 0.000001 -0.038871 -1.155869 -5.550231 -37.626303 2.533016 55.006666 0.000029 57.269326 -0.000005 11.894036 -17.954739 13.469200 0.417418 2.607606 -12.194155 0.130989 -1.346005 11.116454 2.199693 -0.222211 3.793000 0.000001 -0.000002 0.000002 -1.092778 0.185678 -1.137540 4.743436 -8.618898 -0.205435 -2.108491 1.480245 -2.747269 -0.000002 0.000002 0.000000 -1.625871 6.429019 14.006017 0.089859 -1.116526 9.202638 0.017775 -0.497816 4.088411 0.000003 0.000000 0.000000 -0.718569 -4.721192 -8.680652 0.024331 -0.582417 4.784747 2.124405 -0.013224 0.752762 0.000000 0.000000 0.000005 1.750422 -14.710382 6.019704 -0.000002 -0.000010 0.000103 0.003104 0.208198 -1.708648 -0.000001 0.000001 -0.000004 -64.079141 -12.210273 25.402157 82.502538 2.044140 -3.012834 -9.010930 5.525174 -11.091731 -2.238955 0.045678 -1.168396 0.000000 -0.000000 0.000000 -37.904756 -6.938666 -26.785391 87.041376 -3.280225 2.521019 -31.529516 -5.982343 12.889386 -4.828817 -0.690744 8.848566 0.000000 0.000000 -0.000000 
17.315992 149.850250 58.760201 -1.459457 -34.390429 -7.540636 31.179878 5.919269 -4.009300 0.480061 0.904291 1.594486 0.458835 0.932573 1.578840 -4.871219 0.606079 6.156278 -17.946303 10.035208 3.924684 -0.000000 -0.000001 0.000000 -0.000000 -0.000001 0.000000 -0.000000 -0.000001 0.000000 0.386492 -1.624023 2.466541 -13.655698 -4.647620 -68.372181 0.000013 -28.768374 0.000001 -3.797172 12.761770 -6.364415 -0.830698 -6.953472 -6.991089 0.668963 2.965399 -25.420072 0.136301 1.365938 -11.395803 0.000002 0.000000 -0.000000 2.388076 5.328165 -1.059282 3.870349 10.002143 0.732616 -0.273779 3.255168 2.607670 0.000002 -0.000001 0.000001 -1.098133 -8.649494 -7.647441 1.875519 4.727665 -43.258532 0.176751 1.553140 -12.983907 -0.000000 0.000002 0.000001 -0.962343 -6.831361 -8.026615 0.153392 1.448191 -12.092496 0.016951 0.483801 -4.012394 -0.000001 0.000000 -0.000000 -0.863914 -4.249782 -10.325906 -0.018089 -4.053506 -0.517252 0.007478 -0.321465 2.664763 -0.000004 0.000001 -0.000001 -0.079932 -1.363246 -5.789581 -35.895380 -1.934638 53.544114 0.000051 68.785694 -0.000059 7.640303 -18.820687 9.388095 0.590203 3.354735 -12.981420 0.161984 -1.495057 12.366394 2.455353 -0.241095 4.292789 0.000000 -0.000002 -0.000001 -2.527115 4.983327 0.818386 7.539362 -16.870239 -1.426287 -1.629115 0.520655 -2.786918 0.000001 0.000000 -0.000004 -2.000405 7.674575 13.893426 0.142841 -1.404925 11.609939 0.023831 -0.576389 4.735269 0.000003 -0.000001 -0.000001 -0.710800 -4.376693 -9.747248 0.029806 -0.644421 5.295695 2.364711 -0.006827 0.764529 -0.000001 0.000002 -0.000002 1.674957 -14.787751 5.008536 0.000000 0.000003 0.000034 0.004735 0.257170 -2.110697 0.000000 -0.000001 -0.000003 -64.110328 -12.183122 25.562313 82.579712 1.895100 -3.003855 -9.062468 5.342007 -11.091426 -2.319900 0.041443 -1.022796 -0.000000 -0.000000 0.000000 -37.582785 -7.047517 -26.648424 87.053152 -3.262407 2.537513 -31.647863 -6.116360 12.923698 -4.874391 -0.700735 8.911990 0.000000 0.000002 -0.000000 
